HIERARCHY
ROOT Hips
{
    OFFSET   0.000000   0.000000   0.000000
    CHANNELS 6 Xposition Yposition Zposition Zrotation Xrotation Yrotation
    JOINT Chest
    {
        OFFSET   0.000000   8.007230   0.000000
        CHANNELS 3 Zrotation Xrotation Yrotation
        JOINT Chest2
        {
            OFFSET   0.000000  22.077100   0.000000
            CHANNELS 3 Zrotation Xrotation Yrotation
            JOINT Neck
            {
                OFFSET   0.000000  23.255100   0.000000
                CHANNELS 3 Zrotation Xrotation Yrotation
                JOINT Head
                {
                    OFFSET   0.000000  14.370100   1.956600
                    CHANNELS 3 Zrotation Xrotation Yrotation
                    End Site
                    {
                        OFFSET   0.000000  19.566000   0.000000
                    }
                }
            }
            JOINT LeftCollar
            {
                OFFSET   3.911900  19.017000  -0.467063
                CHANNELS 3 Zrotation Xrotation Yrotation
                JOINT LeftShoulder
                {
                    OFFSET  10.383700   0.000000   0.000000
                    CHANNELS 3 Zrotation Xrotation Yrotation
                    JOINT LeftElbow
                    {
                        OFFSET  26.662100   0.001193   0.000980
                        CHANNELS 3 Zrotation Xrotation Yrotation
                        JOINT LeftWrist
                        {
                            OFFSET  28.869000  -0.000059  -0.000082
                            CHANNELS 3 Zrotation Xrotation Yrotation
                            JOINT LeftFinger0
                            {
                                OFFSET   2.044650  -2.323450   3.252850
                                CHANNELS 3 Zrotation Xrotation Yrotation
                                JOINT LeftFinger01
                                {
                                    OFFSET   3.088130   0.000000   0.000000
                                    CHANNELS 3 Zrotation Xrotation Yrotation
                                    JOINT LeftFinger02
                                    {
                                        OFFSET   2.639460   0.000000   0.000000
                                        CHANNELS 3 Zrotation Xrotation Yrotation
                                        End Site
                                        {
                                            OFFSET   2.582190   0.000000   0.000000
                                        }
                                    }
                                }
                            }
                            JOINT LeftFinger1
                            {
                                OFFSET   8.364480   0.000000   3.252850
                                CHANNELS 3 Zrotation Xrotation Yrotation
                                JOINT LeftFinger11
                                {
                                    OFFSET   4.646930   0.000000   0.000000
                                    CHANNELS 3 Zrotation Xrotation Yrotation
                                    JOINT LeftFinger12
                                    {
                                        OFFSET   2.323470   0.000000   0.000000
                                        CHANNELS 3 Zrotation Xrotation Yrotation
                                        End Site
                                        {
                                            OFFSET   2.273050   0.000000   0.000000
                                        }
                                    }
                                }
                            }
                            JOINT LeftFinger2
                            {
                                OFFSET   8.364490   0.000016   1.078090
                                CHANNELS 3 Zrotation Xrotation Yrotation
                                JOINT LeftFinger21
                                {
                                    OFFSET   5.111610   0.000000   0.000000
                                    CHANNELS 3 Zrotation Xrotation Yrotation
                                    JOINT LeftFinger22
                                    {
                                        OFFSET   2.788150   0.000016   0.000000
                                        CHANNELS 3 Zrotation Xrotation Yrotation
                                        End Site
                                        {
                                            OFFSET   2.727660   0.000000   0.000000
                                        }
                                    }
                                }
                            }
                            JOINT LeftFinger3
                            {
                                OFFSET   7.899780   0.000015  -1.078090
                                CHANNELS 3 Zrotation Xrotation Yrotation
                                JOINT LeftFinger31
                                {
                                    OFFSET   4.646930   0.000000   0.000000
                                    CHANNELS 3 Zrotation Xrotation Yrotation
                                    JOINT LeftFinger32
                                    {
                                        OFFSET   2.323470   0.000000   0.000000
                                        CHANNELS 3 Zrotation Xrotation Yrotation
                                        End Site
                                        {
                                            OFFSET   2.273050   0.000000   0.000000
                                        }
                                    }
                                }
                            }
                            JOINT LeftFinger4
                            {
                                OFFSET   7.435090   0.000000  -3.252850
                                CHANNELS 3 Zrotation Xrotation Yrotation
                                JOINT LeftFinger41
                                {
                                    OFFSET   3.717550   0.000000   0.000000
                                    CHANNELS 3 Zrotation Xrotation Yrotation
                                    JOINT LeftFinger42
                                    {
                                        OFFSET   1.858770   0.000000   0.000000
                                        CHANNELS 3 Zrotation Xrotation Yrotation
                                        End Site
                                        {
                                            OFFSET   1.818440   0.000000   0.000000
                                        }
                                    }
                                }
                            }
                        }
                    }
                }
            }
            JOINT RightCollar
            {
                OFFSET  -3.911910  19.017000  -0.467062
                CHANNELS 3 Zrotation Xrotation Yrotation
                JOINT RightShoulder
                {
                    OFFSET -10.383700   0.000014   0.000000
                    CHANNELS 3 Zrotation Xrotation Yrotation
                    JOINT RightElbow
                    {
                        OFFSET -26.662100   0.001225   0.001091
                        CHANNELS 3 Zrotation Xrotation Yrotation
                        JOINT RightWrist
                        {
                            OFFSET -28.869000  -0.000020  -0.000085
                            CHANNELS 3 Zrotation Xrotation Yrotation
                            JOINT RightFinger0
                            {
                                OFFSET  -2.044650  -2.323490   3.252850
                                CHANNELS 3 Zrotation Xrotation Yrotation
                                JOINT RightFinger01
                                {
                                    OFFSET  -3.088130   0.000000   0.000000
                                    CHANNELS 3 Zrotation Xrotation Yrotation
                                    JOINT RightFinger02
                                    {
                                        OFFSET  -2.639460   0.000000   0.000000
                                        CHANNELS 3 Zrotation Xrotation Yrotation
                                        End Site
                                        {
                                            OFFSET  -2.582190   0.000000   0.000000
                                        }
                                    }
                                }
                            }
                            JOINT RightFinger1
                            {
                                OFFSET  -8.364480   0.000000   3.252850
                                CHANNELS 3 Zrotation Xrotation Yrotation
                                JOINT RightFinger11
                                {
                                    OFFSET  -4.646930   0.000000   0.000000
                                    CHANNELS 3 Zrotation Xrotation Yrotation
                                    JOINT RightFinger12
                                    {
                                        OFFSET  -2.323470   0.000000   0.000000
                                        CHANNELS 3 Zrotation Xrotation Yrotation
                                        End Site
                                        {
                                            OFFSET  -2.273050   0.000000   0.000000
                                        }
                                    }
                                }
                            }
                            JOINT RightFinger2
                            {
                                OFFSET  -8.364480   0.000000   1.078090
                                CHANNELS 3 Zrotation Xrotation Yrotation
                                JOINT RightFinger21
                                {
                                    OFFSET  -5.111620   0.000000   0.000000
                                    CHANNELS 3 Zrotation Xrotation Yrotation
                                    JOINT RightFinger22
                                    {
                                        OFFSET  -2.788160   0.000000   0.000000
                                        CHANNELS 3 Zrotation Xrotation Yrotation
                                        End Site
                                        {
                                            OFFSET  -2.727660   0.000000   0.000000
                                        }
                                    }
                                }
                            }
                            JOINT RightFinger3
                            {
                                OFFSET  -7.899780   0.000000  -1.078090
                                CHANNELS 3 Zrotation Xrotation Yrotation
                                JOINT RightFinger31
                                {
                                    OFFSET  -4.646930   0.000000   0.000000
                                    CHANNELS 3 Zrotation Xrotation Yrotation
                                    JOINT RightFinger32
                                    {
                                        OFFSET  -2.323470   0.000000   0.000000
                                        CHANNELS 3 Zrotation Xrotation Yrotation
                                        End Site
                                        {
                                            OFFSET  -2.273050   0.000000   0.000000
                                        }
                                    }
                                }
                            }
                            JOINT RightFinger4
                            {
                                OFFSET  -7.435090   0.000000  -3.252850
                                CHANNELS 3 Zrotation Xrotation Yrotation
                                JOINT RightFinger41
                                {
                                    OFFSET  -3.717550   0.000000   0.000000
                                    CHANNELS 3 Zrotation Xrotation Yrotation
                                    JOINT RightFinger42
                                    {
                                        OFFSET  -1.858760   0.000000   0.000000
                                        CHANNELS 3 Zrotation Xrotation Yrotation
                                        End Site
                                        {
                                            OFFSET  -1.818440   0.000000   0.000000
                                        }
                                    }
                                }
                            }
                        }
                    }
                }
            }
        }
    }
    JOINT LeftHip
    {
        OFFSET   9.783030   0.000000   0.000000
        CHANNELS 3 Zrotation Xrotation Yrotation
        JOINT LeftKnee
        {
            OFFSET   0.000063 -41.789100   0.000608
            CHANNELS 3 Zrotation Xrotation Yrotation
            JOINT LeftAnkle
            {
                OFFSET   0.000048 -41.133200  -0.000184
                CHANNELS 3 Zrotation Xrotation Yrotation
                JOINT LeftToe
                {
                    OFFSET   0.000000  -6.358960  14.674500
                    CHANNELS 3 Zrotation Xrotation Yrotation
                    End Site
                    {
                        OFFSET   0.000000   0.000000   3.913200
                    }
                }
            }
        }
    }
    JOINT RightHip
    {
        OFFSET  -9.783030   0.000000   0.000000
        CHANNELS 3 Zrotation Xrotation Yrotation
        JOINT RightKnee
        {
            OFFSET   0.000071 -41.789100   0.001239
            CHANNELS 3 Zrotation Xrotation Yrotation
            JOINT RightAnkle
            {
                OFFSET   0.000037 -41.133200  -0.000166
                CHANNELS 3 Zrotation Xrotation Yrotation
                JOINT RightToe
                {
                    OFFSET   0.000000  -6.358960  14.674500
                    CHANNELS 3 Zrotation Xrotation Yrotation
                    End Site
                    {
                        OFFSET   0.000000   0.000000   3.913200
                    }
                }
            }
        }
    }
}
MOTION
Frames: 4
Frame Time:   0.016667
  0.468978  89.539900  -1.454230  -3.215850  -7.531080  -6.008350   0.687438   5.347530   0.778684   1.310070  10.703600   1.502410   0.712042  -1.199950   0.012548   1.174480  -2.432270   4.434400  -7.354890  -1.716780  -0.263834 -71.178600  18.136900   0.708072  -2.772420  -6.040520 -17.786900  16.115000 -15.607300   5.939420  44.205800  35.162500 -66.985400 -25.594700   0.006588   0.003220  -7.789660   0.001949   0.004028 -27.825900   5.075080  -9.511400 -23.111100  -0.006293  -0.001991 -16.177800  -0.003708  -0.000111 -28.154100   0.190880  -0.356698 -33.043500  -0.001200  -0.003235 -22.007000  -0.000728  -0.007672 -27.885700   0.189194  -0.357587 -31.271200   0.001361  -0.001941 -20.826600  -0.002341  -0.002874 -29.719800   0.200539  -0.351350 -44.580300  -0.002196  -0.001997 -29.690400   0.006774  -0.003256  13.128500   0.430853   8.037010  67.519900  12.453000  -8.151200  -2.077520  -5.178930  16.458600 -14.368100  -7.550150  -6.515530 -44.080900  31.223700  61.133600  22.381700   0.013476  -0.005458   6.190820  -0.001218  -0.009444  32.123000   7.975250  12.470900  26.979300   0.001175   0.000000  18.885500   0.007025  -0.000000  28.594700   2.543660   4.663420  39.031700   0.010789   0.002881  25.995100  -0.004100   0.003429  28.170700   1.453970   2.723740  33.429900   0.009400   0.003647  22.264300   0.001727   0.003840  34.371400   0.386080   0.564759  51.560000   0.002749   0.001464  34.339000  -0.012539  -0.007845   1.780330  11.041800   2.262310   0.929713   0.124200   4.134470  -0.741969  -4.132260   3.343330  -0.000000   0.000000   0.000000   2.479220   8.433770  -1.922970   0.148275   2.440990  -3.554350  -1.721480  -3.929930   1.675000   0.000000   0.000000   0.000000
  0.469061  89.540100  -1.441510  -3.220380  -7.531560  -6.007590   0.689223   5.347520   0.778618   1.313650  10.703600   1.502230   0.712043  -1.199980   0.012556   1.174090  -2.432290   4.426930  -7.354590  -1.716410  -0.253755 -71.185400  18.161100   0.700059  -2.773770  -6.053470 -17.768900  16.113600 -15.591900   5.938260  44.204300  35.152600 -66.969800 -25.587000   0.006571   0.003216  -7.789660   0.001954   0.004020 -27.823800   5.083570  -9.529110 -23.111600  -0.006291  -0.001968 -16.178100  -0.003717  -0.000108 -28.153800   0.196747  -0.367674 -33.044300  -0.001160  -0.003211 -22.007500  -0.000705  -0.007649 -27.885500   0.195015  -0.368590 -31.271200   0.001388  -0.001917 -20.826600  -0.002319  -0.002861 -29.719500   0.206716  -0.362158 -44.580000  -0.002176  -0.001987 -29.690200   0.006785  -0.003241  13.125800   0.433027   8.037010  67.521300  12.479200  -8.136150  -2.079750  -5.170100  16.462300 -14.368000  -7.549180  -6.515510 -44.082100  31.232500  61.144700  22.388600   0.013476  -0.005452   6.194050  -0.001220  -0.009451  32.118200   7.975100  12.470800  26.979100   0.001162   0.000024  18.885400   0.007015  -0.000000  28.594700   2.543670   4.659130  39.016900   0.010801   0.002876  25.985200  -0.004096   0.003463  28.170800   1.454330   2.721230  33.414200   0.009408   0.003678  22.253800   0.001718   0.003866  34.360800   0.386177   0.564908  51.544000   0.002753   0.001467  34.328300  -0.012546  -0.007848   1.785410  11.043200   2.271540   0.926881   0.141707   4.128060  -0.742803  -4.147870   3.339400   0.000000   0.000000  -0.000000   2.489210   8.447930  -1.948310   0.142399   2.433380  -3.540330  -1.720790  -3.934620   1.683570   0.000000   0.000000  -0.000000
  0.469143  89.540200  -1.418780  -3.227530  -7.534950  -6.003060   0.692283   5.347520   0.778157   1.319880  10.703600   1.500920   0.712045  -1.200020   0.012575   1.173660  -2.432290   4.418520  -7.353930  -1.713810  -0.232013 -71.199700  18.203300   0.680017  -2.773520  -6.072080 -17.743500  16.113800 -15.576600   5.934320  44.202900  35.142800 -66.954200 -25.579300   0.006533   0.003200  -7.789650   0.001958   0.003994 -27.825100   5.098000  -9.556610 -23.114900  -0.006282  -0.001915 -16.180400  -0.003741  -0.000101 -28.153400   0.206054  -0.385065 -33.049400  -0.001066  -0.003149 -22.010900  -0.000650  -0.007592 -27.885200   0.204244  -0.386028 -31.271200   0.001453  -0.001856 -20.826600  -0.002267  -0.002830 -29.719200   0.216507  -0.379288 -44.579700  -0.002127  -0.001960 -29.690000   0.006817  -0.003205  13.119400   0.438205   8.037020  67.524100  12.530200  -8.099560  -2.084320  -5.153420  16.465700 -14.367200  -7.542340  -6.515400 -44.083000  31.244400  61.162900  22.398200   0.013478  -0.005446   6.199090  -0.001224  -0.009461  32.111400   7.974950  12.470700  26.978900   0.001126   0.000065  18.885200   0.006999  -0.000000  28.594700   2.543690   4.654840  39.002100   0.010832   0.002869  25.975400  -0.004088   0.003546  28.170700   1.456830   2.718730  33.398400   0.009427   0.003757  22.243300   0.001692   0.003930  34.345600   0.386339   0.565157  51.521200   0.002764   0.001476  34.313100  -0.012564  -0.007856   1.794310  11.053200   2.280840   0.920696   0.159214   4.121640  -0.743927  -4.163500   3.331530  -0.000000   0.000000  -0.000000   2.508750   8.480760  -2.005770   0.130447   2.415450  -3.506410  -1.719760  -3.942460   1.698540   0.000000   0.000000  -0.000000
  0.465098  89.540200  -1.397570  -3.232650  -7.546440  -5.992210   0.694983   5.351090   0.776388   1.325470  10.710800   1.496980   0.715943  -1.196750   0.012602   1.178940  -2.425560   4.417870  -7.347290  -1.703670  -0.202355 -71.217900  18.240400   0.651456  -2.769000  -6.081700 -17.734300  16.121000 -15.585000   5.926780  44.204100  35.156800 -66.972700 -25.587100   0.006482   0.003164  -7.793530   0.001958   0.003944 -27.837600   5.111050  -9.576530 -23.126400  -0.006263  -0.001839 -16.188400  -0.003781  -0.000095 -28.154900   0.212843  -0.397705 -33.068800  -0.000930  -0.003057 -22.023800  -0.000564  -0.007504 -27.885200   0.210961  -0.398705 -31.276700   0.001549  -0.001764 -20.830200  -0.002189  -0.002782 -29.719100   0.223618  -0.391748 -44.579800  -0.002054  -0.001916 -29.690000   0.006868  -0.003150  13.110400   0.448047   8.034490  67.529600  12.581100  -8.048990  -2.088070  -5.140880  16.452800 -14.372400  -7.525000  -6.514880 -44.083200  31.244900  61.171800  22.400900   0.013492  -0.005470   6.202610  -0.001226  -0.009466  32.108000   7.975320  12.471000  26.980100   0.001067   0.000096  18.886000   0.006985   0.000022  28.594400   2.545940   4.659020  39.002900   0.010879   0.002864  25.975900  -0.004078   0.003674  28.170300   1.461710   2.725870  33.398600   0.009456   0.003877  22.243400   0.001648   0.004029  34.337900   0.386498   0.565405  51.509700   0.002781   0.001490  34.305500  -0.012591  -0.007868   1.800070  11.114200   2.278600   0.915511   0.080305   4.121650  -0.740758  -4.135160   3.323960  -0.000000   0.000000  -0.000000   2.531490   8.526210  -2.087410   0.115783   2.389390  -3.453750  -1.722540  -3.948970   1.711690   0.000000   0.000000   0.000000
